<?xml version="1.0" ?><svg height="36" id="svg6390" version="1.1" width="36" xmlns="http://www.w3.org/2000/svg" xmlns:cc="http://creativecommons.org/ns#" xmlns:dc="http://purl.org/dc/elements/1.1/" xmlns:inkscape="http://www.inkscape.org/namespaces/inkscape" xmlns:rdf="http://www.w3.org/1999/02/22-rdf-syntax-ns#" xmlns:sodipodi="http://sodipodi.sourceforge.net/DTD/sodipodi-0.dtd" xmlns:svg="http://www.w3.org/2000/svg"><defs id="defs6392"/><g id="layer1" transform="translate(0,-1016.3622)"><g id="g3" transform="translate(-7,1019.3622)"><path d="m 21.0117,4.5 0,1.5 L 20,6 l 0,0.32226 0,0.002 c 0,0.25006 0.023,0.44658 0.033,0.67578 l 4.9785,0 1,0 4.9434,0 c 0.01,-0.22985 0.033,-0.42693 0.033,-0.67774 l 0,-0.006 0,-0.3164 -0.9766,0 0,-1.5 -1,0 0,1.5 -1,0 0,-1.5 -1,0 0,1.5 -0.5,0 -0.5,0 0,-1.5 -1,0 0,1.5 -0.5,0 -0.5,0 0,-1.5 -1,0 0,1.5 -1,0 0,-1.5 -1,0 z M 20.0879,8 c 0.099,0.90323 0.2768,1.6194 0.4824,2.23242 l 0,0.002 c 0.027,0.0424 0.046,0.0885 0.059,0.13672 0.034,0.12535 0.084,0.23029 0.123,0.34961 0.071,0.18096 0.1399,0.37097 0.2129,0.53516 0.014,0.0322 0.026,0.058 0.041,0.0898 1.1551,-0.9305 2.8339,-1.3457 4.5058,-1.3457 1.6679,0 3.3431,0.41228 4.4981,1.33789 0.012,-0.0278 0.023,-0.05 0.035,-0.0781 0.096,-0.22042 0.1893,-0.46656 0.2813,-0.71875 0.017,-0.0578 0.041,-0.11162 0.057,-0.16992 0.01,-0.0393 0.023,-0.0773 0.041,-0.11328 0.2042,-0.61836 0.3805,-1.34269 0.4785,-2.25781 l -10.8144,0 z m 5.4238,3 c -1.6068,0 -3.1929,0.47507 -4.0644,1.2832 0.02,0.043 0.042,0.09 0.062,0.13281 0.3306,0.55701 0.6965,1.06167 1.0527,1.55664 0.7393,1.0273 1.457,2.05703 1.457,3.4336 l 0,4.45898 c 0,0.66096 0.4613,1.13672 0.9981,1.13672 l 0.998,0 c 0.5368,0 0.9981,-0.47572 0.9981,-1.13672 l 0,-4.45898 c 0,-0.99914 0.7061,-1.90773 1.4336,-3.05469 0.2862,-0.45137 0.5802,-0.93966 0.8613,-1.44727 0.077,-0.20135 0.1736,-0.41937 0.2676,-0.62109 C 28.7041,11.47507 27.1181,11 25.5112,11 z m 0,1 c 0.8224,0 1.5,0.67765 1.5,1.5 l 0,1 c 0,0.82235 -0.6776,1.5 -1.5,1.5 -0.8223,0 -1.5,-0.67765 -1.5,-1.5 l 0,-1 c 0,-0.82235 0.6777,-1.5 1.5,-1.5 z m 0,1 c -0.2856,0 -0.5,0.21435 -0.5,0.5 l 0,1 c 0,0.28565 0.2144,0.5 0.5,0.5 0.2857,0 0.5,-0.21435 0.5,-0.5 l 0,-1 c 0,-0.28565 -0.2143,-0.5 -0.5,-0.5 z m -3.4961,1.93555 0,7.56445 c 0,1.39366 1.1064,2.5 2.5,2.5 l 2,0 c 1.3937,0 2.5,-1.10634 2.5,-2.5 l 0,-7.14649 c -0.5681,0.92465 -1.0019,1.70739 -1.0019,2.05274 l 0,4.45898 c 0,1.15221 -0.8751,2.13672 -1.9981,2.13672 l -0.998,0 c -1.123,0 -1.9981,-0.98447 -1.9981,-2.13672 l 0,-4.45898 c 0,-0.89532 -0.4171,-1.62862 -1.0039,-2.4707 z" id="path7045" style="font-size:medium;font-style:normal;font-variant:normal;font-weight:normal;font-stretch:normal;text-indent:0;text-align:start;text-decoration:none;line-height:normal;letter-spacing:normal;word-spacing:normal;text-transform:none;direction:ltr;block-progression:tb;writing-mode:lr-tb;text-anchor:start;baseline-shift:baseline;opacity:0.98999999;color:#000000;fill:#000000;fill-opacity:1;fill-rule:nonzero;stroke:none;visibility:visible;display:inline;overflow:visible;enable-background:accumulate;font-family:sans-serif"/></g></g></svg>