<?xml version="1.0" ?><svg id="Layer_1" style="enable-background:new 0 0 128 128;" version="1.1" viewBox="0 0 128 128" xml:space="preserve" xmlns="http://www.w3.org/2000/svg" xmlns:xlink="http://www.w3.org/1999/xlink"><style type="text/css">
	.st0{fill:#0A0A0A;}
</style><g><path class="st0" d="M44,28h13c0.6,0,1-0.4,1-1s-0.4-1-1-1H44c-0.6,0-1,0.4-1,1S43.4,28,44,28z"/><path class="st0" d="M124,26H98c-0.6,0-1,0.4-1,1s0.4,1,1,1h26c0.6,0,1,0.4,1,1v14H3V29c0-0.6,0.4-1,1-1h26c0.6,0,1-0.4,1-1   s-0.4-1-1-1H4c-1.7,0-3,1.3-3,3v80c0,1.7,1.3,3,3,3h120c1.7,0,3-1.3,3-3V29C127,27.3,125.7,26,124,26z M124,110H4c-0.6,0-1-0.4-1-1   V45h122v64C125,109.6,124.6,110,124,110z"/><path class="st0" d="M71,28h13c0.6,0,1-0.4,1-1s-0.4-1-1-1H71c-0.6,0-1,0.4-1,1S70.4,28,71,28z"/><path class="st0" d="M36,37h2c1.7,0,3-1.3,3-3V19c0-1.7-1.3-3-3-3h-2c-1.7,0-3,1.3-3,3v15C33,35.7,34.3,37,36,37z M35,19   c0-0.6,0.4-1,1-1h2c0.6,0,1,0.4,1,1v15c0,0.6-0.4,1-1,1h-2c-0.6,0-1-0.4-1-1V19z"/><path class="st0" d="M90,37h2c1.7,0,3-1.3,3-3V19c0-1.7-1.3-3-3-3h-2c-1.7,0-3,1.3-3,3v15C87,35.7,88.3,37,90,37z M89,19   c0-0.6,0.4-1,1-1h2c0.6,0,1,0.4,1,1v15c0,0.6-0.4,1-1,1h-2c-0.6,0-1-0.4-1-1V19z"/><path class="st0" d="M63,37h2c1.7,0,3-1.3,3-3V19c0-1.7-1.3-3-3-3h-2c-1.7,0-3,1.3-3,3v15C60,35.7,61.3,37,63,37z M62,19   c0-0.6,0.4-1,1-1h2c0.6,0,1,0.4,1,1v15c0,0.6-0.4,1-1,1h-2c-0.6,0-1-0.4-1-1V19z"/><path class="st0" d="M89.8,57.8c-1.2-1.2-3-1.2-4.2,0L60.8,82.6L49.5,71.3c-1.2-1.2-3.1-1.2-4.2,0l-1.4,1.4   C43.3,73.3,43,74,43,74.8c0,0.8,0.3,1.5,0.9,2.1l16.9,16.9l0.7-0.7l29.7-29.7c1.2-1.2,1.2-3,0-4.2L89.8,57.8z M89.8,62l-29,29   l-3.5-3.5l-12-12c-0.2-0.2-0.3-0.4-0.3-0.7c0-0.3,0.1-0.5,0.3-0.7l1.4-1.4c0.4-0.4,1-0.4,1.4,0l12.7,12.7L87,59.2   c0.4-0.4,1-0.4,1.4,0l1.4,1.4C90.2,61,90.2,61.6,89.8,62z"/></g></svg>